<?xml version="1.0" encoding="iso-8859-1"?>
<!-- Generator: Adobe Illustrator 19.0.0, SVG Export Plug-In . SVG Version: 6.00 Build 0)  -->
<svg version="1.1" id="Capa_1" xmlns="http://www.w3.org/2000/svg" xmlns:xlink="http://www.w3.org/1999/xlink" x="0px" y="0px"
	 viewBox="0 0 511.998 511.998" style="enable-background:new 0 0 511.998 511.998;" xml:space="preserve">
<path style="fill:#75CD90;" d="M343.273,502H168.727v-7.002c0-27.937,22.648-50.585,50.585-50.585h73.375
	c27.937,0,50.585,22.648,50.585,50.585V502H343.273z"/>
<polygon style="fill:#C98D54;" points="287.941,444.413 279.339,206.723 232.661,206.723 224.058,444.413 "/>
<polygon style="fill:#ADE6F7;" points="403.368,206.723 108.632,206.723 118.321,171.514 153.779,42.688 162.78,10 349.22,10 
	358.221,42.688 393.678,171.514 "/>
<g>
	<path style="fill:#FCD577;" d="M403.368,206.723H108.632l9.689-35.209c6.548-5.421,14.954-8.682,24.127-8.682
		c20.909,0,37.851,16.942,37.851,37.851c0-10.454,4.233-19.919,11.091-26.768c6.849-6.849,16.305-11.083,26.76-11.083
		c20.909,0,37.851,16.942,37.851,37.851c0-10.454,4.233-19.919,11.082-26.768s16.314-11.083,26.768-11.083
		c20.9,0,37.851,16.942,37.851,37.851c0-10.454,4.233-19.919,11.082-26.768s16.314-11.083,26.768-11.083
		c9.172,0,17.579,3.261,24.127,8.682L403.368,206.723z"/>
	<path style="fill:#FCD577;" d="M358.221,42.688c-4.535,2.986-9.964,4.724-15.806,4.724c-15.91,0-28.808-12.898-28.808-28.808
		c0,7.95-3.227,15.161-8.432,20.367c-5.214,5.214-12.416,8.441-20.367,8.441c-15.91,0-28.808-12.898-28.808-28.808
		c0,7.95-3.227,15.161-8.441,20.367c-5.206,5.214-12.416,8.441-20.367,8.441c-15.91,0-28.799-12.898-28.799-28.808
		c0,7.95-3.227,15.161-8.441,20.367c-5.214,5.214-12.407,8.441-20.367,8.441c-5.842,0-11.272-1.738-15.806-4.724l9-32.688H349.22
		L358.221,42.688z"/>
</g>
<path d="M256,285.42c-0.65,0-1.31-0.07-1.95-0.2s-1.27-0.32-1.87-0.57c-0.61-0.25-1.19-0.56-1.73-0.92
	c-0.55-0.359-1.06-0.779-1.52-1.25c-0.46-0.46-0.88-0.97-1.24-1.51c-0.36-0.55-0.67-1.13-0.92-1.729
	c-0.25-0.601-0.44-1.23-0.57-1.87c-0.13-0.641-0.2-1.301-0.2-1.95c0-0.66,0.07-1.31,0.2-1.96c0.12-0.641,0.32-1.27,0.57-1.87
	s0.56-1.18,0.92-1.73c0.36-0.54,0.78-1.05,1.24-1.51c0.46-0.47,0.97-0.88,1.52-1.25c0.54-0.359,1.12-0.67,1.73-0.92
	c0.6-0.25,1.23-0.439,1.87-0.57c1.29-0.26,2.61-0.26,3.9,0c0.64,0.131,1.27,0.32,1.88,0.57c0.6,0.25,1.18,0.561,1.72,0.92
	c0.55,0.37,1.06,0.78,1.52,1.25c0.46,0.46,0.88,0.97,1.25,1.51c0.36,0.551,0.66,1.131,0.91,1.73c0.25,0.6,0.45,1.229,0.58,1.87
	c0.13,0.649,0.19,1.3,0.19,1.96c0,0.649-0.06,1.31-0.19,1.95s-0.33,1.27-0.58,1.87s-0.56,1.18-0.92,1.729
	c-0.36,0.54-0.78,1.05-1.24,1.51c-0.46,0.471-0.97,0.88-1.52,1.25c-0.54,0.36-1.12,0.67-1.73,0.92c-0.6,0.25-1.23,0.44-1.87,0.57
	C257.31,285.35,256.65,285.42,256,285.42z"/>
<path d="M444.241,492h-91.044c-1.488-30.385-25.469-54.942-55.601-57.371l-7.887-217.906h113.66c3.121,0,6.063-1.457,7.954-3.939
	c1.419-1.861,2.124-4.14,2.039-6.432c-0.014-0.382-0.05-0.764-0.109-1.145c-0.058-0.381-0.139-0.76-0.243-1.136l0,0
	c-0.003-0.009,0,0-0.003-0.009L358.861,7.346c-0.006-0.023,0.006,0.023,0,0l0,0C357.667,3.007,353.721,0,349.22,0H162.78
	c-4.501,0-8.446,3.007-9.641,7.346l0,0c-0.006,0.023,0.006-0.023,0,0L98.99,204.069c-0.003,0.009,0.003-0.01,0,0l0,0
	c-0.103,0.376-0.184,0.755-0.243,1.136s-0.095,0.763-0.109,1.145c-0.085,2.292,0.621,4.571,2.039,6.432
	c1.892,2.482,4.834,3.939,7.954,3.939h113.66l-7.887,217.906c-30.133,2.429-54.113,26.986-55.602,57.371H67.759
	c-5.523,0-10,4.478-10,10s4.477,10,10,10l0,0H444.24l0,0c5.523,0,10-4.478,10-10S449.764,492,444.241,492z M266.277,196.723
	L266.277,196.723c0.839-5.941,3.563-11.424,7.876-15.737c5.258-5.258,12.253-8.153,19.698-8.153
	c14.013,0,25.642,10.402,27.57,23.891h-55.144V196.723z M180.281,171.416c-8.761-11.299-22.462-18.584-37.834-18.584
	c-2.981,0-5.939,0.289-8.841,0.836l26.801-97.371c2.984,0.725,6.058,1.115,9.178,1.115c10.362,0,20.106-4.038,27.432-11.364
	c0.476-0.475,0.938-0.96,1.385-1.454c7.106,7.867,17.38,12.818,28.79,12.818c10.374,0,20.121-4.04,27.432-11.364
	c0.476-0.475,0.938-0.961,1.386-1.455c7.107,7.867,17.385,12.819,28.797,12.819c10.362,0,20.107-4.038,27.438-11.37
	c0.472-0.472,0.93-0.954,1.375-1.445c7.107,7.866,17.383,12.815,28.794,12.815c3.12,0,6.194-0.391,9.178-1.115l26.801,97.371
	c-2.902-0.547-5.86-0.836-8.841-0.836c-12.786,0-24.804,4.976-33.84,14.011c-1.449,1.45-2.794,2.977-4.031,4.57
	c-8.76-11.297-22.461-18.581-37.831-18.581c-12.786,0-24.804,4.976-33.84,14.011c-1.449,1.45-2.794,2.977-4.031,4.57
	c-8.761-11.297-22.461-18.581-37.831-18.581c-12.78,0-24.795,4.976-33.827,14.007C182.869,168.291,181.52,169.819,180.281,171.416z
	 M341.979,196.723c0.839-5.941,3.563-11.424,7.876-15.737c5.258-5.258,12.253-8.153,19.698-8.153c5.489,0,10.855,1.63,15.392,4.636
	l5.3,19.255h-48.266V196.723z M341.602,20l4.683,17.014c-1.263,0.263-2.559,0.398-3.871,0.398c-9.901,0-18.041-7.69-18.756-17.412
	C323.658,20,341.602,20,341.602,20z M303.556,20c-0.327,4.499-2.234,8.682-5.453,11.9c-3.554,3.554-8.276,5.512-13.295,5.512
	c-9.901,0-18.04-7.69-18.756-17.412C266.051,20,303.556,20,303.556,20z M245.949,20c-0.328,4.499-2.236,8.681-5.467,11.906
	c-3.544,3.551-8.264,5.506-13.29,5.506c-9.897,0-18.032-7.69-18.748-17.412C208.444,20,245.949,20,245.949,20z M188.343,20
	c-0.327,4.499-2.236,8.68-5.462,11.9c-3.554,3.554-8.276,5.512-13.295,5.512c-1.312,0-2.607-0.135-3.871-0.398L170.398,20H188.343z
	 M121.755,196.723l5.3-19.255c4.537-3.006,9.903-4.636,15.392-4.636c14.013,0,25.642,10.402,27.57,23.891H121.755z M198.46,180.985
	c5.258-5.258,12.25-8.153,19.689-8.153c14.013,0,25.642,10.402,27.57,23.891l0,0h-55.143
	C191.415,190.781,194.141,185.3,198.46,180.985z M269.695,216.723l7.879,217.69H266V314.39c0-5.522-4.477-10-10-10
	c-5.523,0-10,4.478-10,10v120.023h-11.574l7.879-217.69L269.695,216.723L269.695,216.723z M178.837,492
	c1.54-20.984,19.105-37.587,40.476-37.587l0,0h73.375l0,0c21.371,0,38.936,16.603,40.476,37.587H178.837z"/>
<g>
</g>
<g>
</g>
<g>
</g>
<g>
</g>
<g>
</g>
<g>
</g>
<g>
</g>
<g>
</g>
<g>
</g>
<g>
</g>
<g>
</g>
<g>
</g>
<g>
</g>
<g>
</g>
<g>
</g>
</svg>
